<svg width="456" height="112" viewBox="0 0 456 112" fill="none" xmlns="http://www.w3.org/2000/svg">
<path d="M0 16C0 7.16344 7.16344 0 16 0H440C448.837 0 456 7.16344 456 16V112H16C7.16344 112 0 104.837 0 96V16Z" fill="#7876FF"/>
<path d="M26.78 35.94V40.02H31.58V41.88H26.78V46.14H32.18V48H24.5V34.08H32.18V35.94H26.78ZM39.2483 45.96L42.3683 36.98H44.7883L40.5883 48H37.8683L33.6883 36.98H36.1283L39.2483 45.96ZM56.6117 42.22C56.6117 42.6333 56.5851 43.0067 56.5317 43.34H48.1117C48.1784 44.22 48.5051 44.9267 49.0917 45.46C49.6784 45.9933 50.3984 46.26 51.2517 46.26C52.4784 46.26 53.3451 45.7467 53.8517 44.72H56.3117C55.9784 45.7333 55.3717 46.5667 54.4917 47.22C53.6251 47.86 52.5451 48.18 51.2517 48.18C50.1984 48.18 49.2517 47.9467 48.4117 47.48C47.5851 47 46.9317 46.3333 46.4517 45.48C45.9851 44.6133 45.7517 43.6133 45.7517 42.48C45.7517 41.3467 45.9784 40.3533 46.4317 39.5C46.8984 38.6333 47.5451 37.9667 48.3717 37.5C49.2117 37.0333 50.1717 36.8 51.2517 36.8C52.2917 36.8 53.2184 37.0267 54.0317 37.48C54.8451 37.9333 55.4784 38.5733 55.9317 39.4C56.3851 40.2133 56.6117 41.1533 56.6117 42.22ZM54.2317 41.5C54.2184 40.66 53.9184 39.9867 53.3317 39.48C52.7451 38.9733 52.0184 38.72 51.1517 38.72C50.3651 38.72 49.6917 38.9733 49.1317 39.48C48.5717 39.9733 48.2384 40.6467 48.1317 41.5H54.2317ZM61.1355 38.58C61.4688 38.02 61.9088 37.5867 62.4555 37.28C63.0155 36.96 63.6755 36.8 64.4355 36.8V39.16H63.8555C62.9621 39.16 62.2821 39.3867 61.8155 39.84C61.3621 40.2933 61.1355 41.08 61.1355 42.2V48H58.8555V36.98H61.1355V38.58ZM76.4513 36.98L69.6913 53.18H67.3313L69.5713 47.82L65.2313 36.98H67.7713L70.8713 45.38L74.0913 36.98H76.4513ZM82.6072 42.44C82.6072 41.3333 82.8339 40.3533 83.2872 39.5C83.7539 38.6467 84.3805 37.9867 85.1672 37.52C85.9672 37.04 86.8539 36.8 87.8272 36.8C88.6805 36.8 89.4339 36.9733 90.0872 37.32C90.7539 37.6667 91.2672 38.0867 91.6272 38.58V36.98H93.9272V53.24H91.6272V46.4C91.2672 46.8933 90.7472 47.3133 90.0672 47.66C89.3872 48.0067 88.6139 48.18 87.7472 48.18C86.8005 48.18 85.9339 47.94 85.1472 47.46C84.3739 46.9667 83.7539 46.2867 83.2872 45.42C82.8339 44.54 82.6072 43.5467 82.6072 42.44ZM91.6272 42.48C91.6272 41.72 91.4672 41.06 91.1472 40.5C90.8405 39.94 90.4339 39.5133 89.9272 39.22C89.4205 38.9267 88.8739 38.78 88.2872 38.78C87.7005 38.78 87.1539 38.9267 86.6472 39.22C86.1405 39.5 85.7272 39.92 85.4072 40.48C85.1005 41.0267 84.9472 41.68 84.9472 42.44C84.9472 43.2 85.1005 43.8667 85.4072 44.44C85.7272 45.0133 86.1405 45.4533 86.6472 45.76C87.1672 46.0533 87.7139 46.2 88.2872 46.2C88.8739 46.2 89.4205 46.0533 89.9272 45.76C90.4339 45.4667 90.8405 45.04 91.1472 44.48C91.4672 43.9067 91.6272 43.24 91.6272 42.48ZM106.902 36.98V48H104.622V46.7C104.262 47.1533 103.789 47.5133 103.202 47.78C102.629 48.0333 102.015 48.16 101.362 48.16C100.495 48.16 99.7152 47.98 99.0219 47.62C98.3419 47.26 97.8019 46.7267 97.4019 46.02C97.0152 45.3133 96.8219 44.46 96.8219 43.46V36.98H99.0819V43.12C99.0819 44.1067 99.3285 44.8667 99.8219 45.4C100.315 45.92 100.989 46.18 101.842 46.18C102.695 46.18 103.369 45.92 103.862 45.4C104.369 44.8667 104.622 44.1067 104.622 43.12V36.98H106.902ZM120.01 42.22C120.01 42.6333 119.983 43.0067 119.93 43.34H111.51C111.577 44.22 111.903 44.9267 112.49 45.46C113.077 45.9933 113.797 46.26 114.65 46.26C115.877 46.26 116.743 45.7467 117.25 44.72H119.71C119.377 45.7333 118.77 46.5667 117.89 47.22C117.023 47.86 115.943 48.18 114.65 48.18C113.597 48.18 112.65 47.9467 111.81 47.48C110.983 47 110.33 46.3333 109.85 45.48C109.383 44.6133 109.15 43.6133 109.15 42.48C109.15 41.3467 109.377 40.3533 109.83 39.5C110.297 38.6333 110.943 37.9667 111.77 37.5C112.61 37.0333 113.57 36.8 114.65 36.8C115.69 36.8 116.617 37.0267 117.43 37.48C118.243 37.9333 118.877 38.5733 119.33 39.4C119.783 40.2133 120.01 41.1533 120.01 42.22ZM117.63 41.5C117.617 40.66 117.317 39.9867 116.73 39.48C116.143 38.9733 115.417 38.72 114.55 38.72C113.763 38.72 113.09 38.9733 112.53 39.48C111.97 39.9733 111.637 40.6467 111.53 41.5H117.63ZM126.254 48.18C125.387 48.18 124.607 48.0267 123.914 47.72C123.234 47.4 122.694 46.9733 122.294 46.44C121.894 45.8933 121.681 45.2867 121.654 44.62H124.014C124.054 45.0867 124.274 45.48 124.674 45.8C125.087 46.1067 125.601 46.26 126.214 46.26C126.854 46.26 127.347 46.14 127.694 45.9C128.054 45.6467 128.234 45.3267 128.234 44.94C128.234 44.5267 128.034 44.22 127.634 44.02C127.247 43.82 126.627 43.6 125.774 43.36C124.947 43.1333 124.274 42.9133 123.754 42.7C123.234 42.4867 122.781 42.16 122.394 41.72C122.021 41.28 121.834 40.7 121.834 39.98C121.834 39.3933 122.007 38.86 122.354 38.38C122.701 37.8867 123.194 37.5 123.834 37.22C124.487 36.94 125.234 36.8 126.074 36.8C127.327 36.8 128.334 37.12 129.094 37.76C129.867 38.3867 130.281 39.2467 130.334 40.34H128.054C128.014 39.8467 127.814 39.4533 127.454 39.16C127.094 38.8667 126.607 38.72 125.994 38.72C125.394 38.72 124.934 38.8333 124.614 39.06C124.294 39.2867 124.134 39.5867 124.134 39.96C124.134 40.2533 124.241 40.5 124.454 40.7C124.667 40.9 124.927 41.06 125.234 41.18C125.541 41.2867 125.994 41.4267 126.594 41.6C127.394 41.8133 128.047 42.0333 128.554 42.26C129.074 42.4733 129.521 42.7933 129.894 43.22C130.267 43.6467 130.461 44.2133 130.474 44.92C130.474 45.5467 130.301 46.1067 129.954 46.6C129.607 47.0933 129.114 47.48 128.474 47.76C127.847 48.04 127.107 48.18 126.254 48.18ZM135.598 38.84V44.94C135.598 45.3533 135.691 45.6533 135.878 45.84C136.078 46.0133 136.411 46.1 136.878 46.1H138.278V48H136.478C135.451 48 134.664 47.76 134.118 47.28C133.571 46.8 133.298 46.02 133.298 44.94V38.84H131.998V36.98H133.298V34.24H135.598V36.98H138.278V38.84H135.598ZM141.539 35.52C141.126 35.52 140.779 35.38 140.499 35.1C140.219 34.82 140.079 34.4733 140.079 34.06C140.079 33.6467 140.219 33.3 140.499 33.02C140.779 32.74 141.126 32.6 141.539 32.6C141.939 32.6 142.279 32.74 142.559 33.02C142.839 33.3 142.979 33.6467 142.979 34.06C142.979 34.4733 142.839 34.82 142.559 35.1C142.279 35.38 141.939 35.52 141.539 35.52ZM142.659 36.98V48H140.379V36.98H142.659ZM150.432 48.18C149.392 48.18 148.452 47.9467 147.612 47.48C146.772 47 146.112 46.3333 145.632 45.48C145.152 44.6133 144.912 43.6133 144.912 42.48C144.912 41.36 145.159 40.3667 145.652 39.5C146.146 38.6333 146.819 37.9667 147.672 37.5C148.526 37.0333 149.479 36.8 150.532 36.8C151.586 36.8 152.539 37.0333 153.392 37.5C154.246 37.9667 154.919 38.6333 155.412 39.5C155.906 40.3667 156.152 41.36 156.152 42.48C156.152 43.6 155.899 44.5933 155.392 45.46C154.886 46.3267 154.192 47 153.312 47.48C152.446 47.9467 151.486 48.18 150.432 48.18ZM150.432 46.2C151.019 46.2 151.566 46.06 152.072 45.78C152.592 45.5 153.012 45.08 153.332 44.52C153.652 43.96 153.812 43.28 153.812 42.48C153.812 41.68 153.659 41.0067 153.352 40.46C153.046 39.9 152.639 39.48 152.132 39.2C151.626 38.92 151.079 38.78 150.492 38.78C149.906 38.78 149.359 38.92 148.852 39.2C148.359 39.48 147.966 39.9 147.672 40.46C147.379 41.0067 147.232 41.68 147.232 42.48C147.232 43.6667 147.532 44.5867 148.132 45.24C148.746 45.88 149.512 46.2 150.432 46.2ZM163.966 36.8C164.833 36.8 165.606 36.98 166.286 37.34C166.98 37.7 167.52 38.2333 167.906 38.94C168.293 39.6467 168.486 40.5 168.486 41.5V48H166.226V41.84C166.226 40.8533 165.98 40.1 165.486 39.58C164.993 39.0467 164.32 38.78 163.466 38.78C162.613 38.78 161.933 39.0467 161.426 39.58C160.933 40.1 160.686 40.8533 160.686 41.84V48H158.406V36.98H160.686V38.24C161.06 37.7867 161.533 37.4333 162.106 37.18C162.693 36.9267 163.313 36.8 163.966 36.8ZM177.75 35.52C177.337 35.52 176.99 35.38 176.71 35.1C176.43 34.82 176.29 34.4733 176.29 34.06C176.29 33.6467 176.43 33.3 176.71 33.02C176.99 32.74 177.337 32.6 177.75 32.6C178.15 32.6 178.49 32.74 178.77 33.02C179.05 33.3 179.19 33.6467 179.19 34.06C179.19 34.4733 179.05 34.82 178.77 35.1C178.49 35.38 178.15 35.52 177.75 35.52ZM178.87 36.98V48H176.59V36.98H178.87ZM185.863 48.18C184.997 48.18 184.217 48.0267 183.523 47.72C182.843 47.4 182.303 46.9733 181.903 46.44C181.503 45.8933 181.29 45.2867 181.263 44.62H183.623C183.663 45.0867 183.883 45.48 184.283 45.8C184.697 46.1067 185.21 46.26 185.823 46.26C186.463 46.26 186.957 46.14 187.303 45.9C187.663 45.6467 187.843 45.3267 187.843 44.94C187.843 44.5267 187.643 44.22 187.243 44.02C186.857 43.82 186.237 43.6 185.383 43.36C184.557 43.1333 183.883 42.9133 183.363 42.7C182.843 42.4867 182.39 42.16 182.003 41.72C181.63 41.28 181.443 40.7 181.443 39.98C181.443 39.3933 181.617 38.86 181.963 38.38C182.31 37.8867 182.803 37.5 183.443 37.22C184.097 36.94 184.843 36.8 185.683 36.8C186.937 36.8 187.943 37.12 188.703 37.76C189.477 38.3867 189.89 39.2467 189.943 40.34H187.663C187.623 39.8467 187.423 39.4533 187.063 39.16C186.703 38.8667 186.217 38.72 185.603 38.72C185.003 38.72 184.543 38.8333 184.223 39.06C183.903 39.2867 183.743 39.5867 183.743 39.96C183.743 40.2533 183.85 40.5 184.063 40.7C184.277 40.9 184.537 41.06 184.843 41.18C185.15 41.2867 185.603 41.4267 186.203 41.6C187.003 41.8133 187.657 42.0333 188.163 42.26C188.683 42.4733 189.13 42.7933 189.503 43.22C189.877 43.6467 190.07 44.2133 190.083 44.92C190.083 45.5467 189.91 46.1067 189.563 46.6C189.217 47.0933 188.723 47.48 188.083 47.76C187.457 48.04 186.717 48.18 185.863 48.18ZM196.982 42.44C196.982 41.3333 197.209 40.3533 197.662 39.5C198.129 38.6467 198.756 37.9867 199.542 37.52C200.342 37.04 201.222 36.8 202.182 36.8C203.049 36.8 203.802 36.9733 204.442 37.32C205.096 37.6533 205.616 38.0733 206.002 38.58V36.98H208.302V48H206.002V46.36C205.616 46.88 205.089 47.3133 204.422 47.66C203.756 48.0067 202.996 48.18 202.142 48.18C201.196 48.18 200.329 47.94 199.542 47.46C198.756 46.9667 198.129 46.2867 197.662 45.42C197.209 44.54 196.982 43.5467 196.982 42.44ZM206.002 42.48C206.002 41.72 205.842 41.06 205.522 40.5C205.216 39.94 204.809 39.5133 204.302 39.22C203.796 38.9267 203.249 38.78 202.662 38.78C202.076 38.78 201.529 38.9267 201.022 39.22C200.516 39.5 200.102 39.92 199.782 40.48C199.476 41.0267 199.322 41.68 199.322 42.44C199.322 43.2 199.476 43.8667 199.782 44.44C200.102 45.0133 200.516 45.4533 201.022 45.76C201.542 46.0533 202.089 46.2 202.662 46.2C203.249 46.2 203.796 46.0533 204.302 45.76C204.809 45.4667 205.216 45.04 205.522 44.48C205.842 43.9067 206.002 43.24 206.002 42.48ZM220.492 48.18C219.626 48.18 218.846 48.0267 218.152 47.72C217.472 47.4 216.932 46.9733 216.532 46.44C216.132 45.8933 215.919 45.2867 215.892 44.62H218.252C218.292 45.0867 218.512 45.48 218.912 45.8C219.326 46.1067 219.839 46.26 220.452 46.26C221.092 46.26 221.586 46.14 221.932 45.9C222.292 45.6467 222.472 45.3267 222.472 44.94C222.472 44.5267 222.272 44.22 221.872 44.02C221.486 43.82 220.866 43.6 220.012 43.36C219.186 43.1333 218.512 42.9133 217.992 42.7C217.472 42.4867 217.019 42.16 216.632 41.72C216.259 41.28 216.072 40.7 216.072 39.98C216.072 39.3933 216.246 38.86 216.592 38.38C216.939 37.8867 217.432 37.5 218.072 37.22C218.726 36.94 219.472 36.8 220.312 36.8C221.566 36.8 222.572 37.12 223.332 37.76C224.106 38.3867 224.519 39.2467 224.572 40.34H222.292C222.252 39.8467 222.052 39.4533 221.692 39.16C221.332 38.8667 220.846 38.72 220.232 38.72C219.632 38.72 219.172 38.8333 218.852 39.06C218.532 39.2867 218.372 39.5867 218.372 39.96C218.372 40.2533 218.479 40.5 218.692 40.7C218.906 40.9 219.166 41.06 219.472 41.18C219.779 41.2867 220.232 41.4267 220.832 41.6C221.632 41.8133 222.286 42.0333 222.792 42.26C223.312 42.4733 223.759 42.7933 224.132 43.22C224.506 43.6467 224.699 44.2133 224.712 44.92C224.712 45.5467 224.539 46.1067 224.192 46.6C223.846 47.0933 223.352 47.48 222.712 47.76C222.086 48.04 221.346 48.18 220.492 48.18ZM229.836 38.84V44.94C229.836 45.3533 229.929 45.6533 230.116 45.84C230.316 46.0133 230.649 46.1 231.116 46.1H232.516V48H230.716C229.689 48 228.902 47.76 228.356 47.28C227.809 46.8 227.536 46.02 227.536 44.94V38.84H226.236V36.98H227.536V34.24H229.836V36.98H232.516V38.84H229.836ZM244.717 42.22C244.717 42.6333 244.691 43.0067 244.637 43.34H236.217C236.284 44.22 236.611 44.9267 237.197 45.46C237.784 45.9933 238.504 46.26 239.357 46.26C240.584 46.26 241.451 45.7467 241.957 44.72H244.417C244.084 45.7333 243.477 46.5667 242.597 47.22C241.731 47.86 240.651 48.18 239.357 48.18C238.304 48.18 237.357 47.9467 236.517 47.48C235.691 47 235.037 46.3333 234.557 45.48C234.091 44.6133 233.857 43.6133 233.857 42.48C233.857 41.3467 234.084 40.3533 234.537 39.5C235.004 38.6333 235.651 37.9667 236.477 37.5C237.317 37.0333 238.277 36.8 239.357 36.8C240.397 36.8 241.324 37.0267 242.137 37.48C242.951 37.9333 243.584 38.5733 244.037 39.4C244.491 40.2133 244.717 41.1533 244.717 42.22ZM242.337 41.5C242.324 40.66 242.024 39.9867 241.437 39.48C240.851 38.9733 240.124 38.72 239.257 38.72C238.471 38.72 237.797 38.9733 237.237 39.48C236.677 39.9733 236.344 40.6467 236.237 41.5H242.337ZM249.241 38.6C249.628 38.0933 250.154 37.6667 250.821 37.32C251.488 36.9733 252.241 36.8 253.081 36.8C254.041 36.8 254.914 37.04 255.701 37.52C256.501 37.9867 257.128 38.6467 257.581 39.5C258.034 40.3533 258.261 41.3333 258.261 42.44C258.261 43.5467 258.034 44.54 257.581 45.42C257.128 46.2867 256.501 46.9667 255.701 47.46C254.914 47.94 254.041 48.18 253.081 48.18C252.241 48.18 251.494 48.0133 250.841 47.68C250.188 47.3333 249.654 46.9067 249.241 46.4V53.24H246.961V36.98H249.241V38.6ZM255.941 42.44C255.941 41.68 255.781 41.0267 255.461 40.48C255.154 39.92 254.741 39.5 254.221 39.22C253.714 38.9267 253.168 38.78 252.581 38.78C252.008 38.78 251.461 38.9267 250.941 39.22C250.434 39.5133 250.021 39.94 249.701 40.5C249.394 41.06 249.241 41.72 249.241 42.48C249.241 43.24 249.394 43.9067 249.701 44.48C250.021 45.04 250.434 45.4667 250.941 45.76C251.461 46.0533 252.008 46.2 252.581 46.2C253.168 46.2 253.714 46.0533 254.221 45.76C254.741 45.4533 255.154 45.0133 255.461 44.44C255.781 43.8667 255.941 43.2 255.941 42.44ZM268.371 38.84V44.94C268.371 45.3533 268.464 45.6533 268.651 45.84C268.851 46.0133 269.184 46.1 269.651 46.1H271.051V48H269.251C268.224 48 267.438 47.76 266.891 47.28C266.344 46.8 266.071 46.02 266.071 44.94V38.84H264.771V36.98H266.071V34.24H268.371V36.98H271.051V38.84H268.371ZM277.932 48.18C276.892 48.18 275.952 47.9467 275.112 47.48C274.272 47 273.612 46.3333 273.132 45.48C272.652 44.6133 272.412 43.6133 272.412 42.48C272.412 41.36 272.659 40.3667 273.152 39.5C273.646 38.6333 274.319 37.9667 275.172 37.5C276.026 37.0333 276.979 36.8 278.032 36.8C279.086 36.8 280.039 37.0333 280.892 37.5C281.746 37.9667 282.419 38.6333 282.912 39.5C283.406 40.3667 283.652 41.36 283.652 42.48C283.652 43.6 283.399 44.5933 282.892 45.46C282.386 46.3267 281.692 47 280.812 47.48C279.946 47.9467 278.986 48.18 277.932 48.18ZM277.932 46.2C278.519 46.2 279.066 46.06 279.572 45.78C280.092 45.5 280.512 45.08 280.832 44.52C281.152 43.96 281.312 43.28 281.312 42.48C281.312 41.68 281.159 41.0067 280.852 40.46C280.546 39.9 280.139 39.48 279.632 39.2C279.126 38.92 278.579 38.78 277.992 38.78C277.406 38.78 276.859 38.92 276.352 39.2C275.859 39.48 275.466 39.9 275.172 40.46C274.879 41.0067 274.732 41.68 274.732 42.48C274.732 43.6667 275.032 44.5867 275.632 45.24C276.246 45.88 277.012 46.2 277.932 46.2ZM300.706 36.98L297.286 48H294.886L292.666 39.86L290.446 48H288.046L284.606 36.98H286.926L289.226 45.84L291.566 36.98H293.946L296.186 45.8L298.466 36.98H300.706ZM301.65 42.44C301.65 41.3333 301.877 40.3533 302.33 39.5C302.797 38.6467 303.423 37.9867 304.21 37.52C305.01 37.04 305.89 36.8 306.85 36.8C307.717 36.8 308.47 36.9733 309.11 37.32C309.763 37.6533 310.283 38.0733 310.67 38.58V36.98H312.97V48H310.67V46.36C310.283 46.88 309.757 47.3133 309.09 47.66C308.423 48.0067 307.663 48.18 306.81 48.18C305.863 48.18 304.997 47.94 304.21 47.46C303.423 46.9667 302.797 46.2867 302.33 45.42C301.877 44.54 301.65 43.5467 301.65 42.44ZM310.67 42.48C310.67 41.72 310.51 41.06 310.19 40.5C309.883 39.94 309.477 39.5133 308.97 39.22C308.463 38.9267 307.917 38.78 307.33 38.78C306.743 38.78 306.197 38.9267 305.69 39.22C305.183 39.5 304.77 39.92 304.45 40.48C304.143 41.0267 303.99 41.68 303.99 42.44C303.99 43.2 304.143 43.8667 304.45 44.44C304.77 45.0133 305.183 45.4533 305.69 45.76C306.21 46.0533 306.757 46.2 307.33 46.2C307.917 46.2 308.463 46.0533 308.97 45.76C309.477 45.4667 309.883 45.04 310.19 44.48C310.51 43.9067 310.67 43.24 310.67 42.48ZM318.245 38.58C318.578 38.02 319.018 37.5867 319.565 37.28C320.125 36.96 320.785 36.8 321.545 36.8V39.16H320.965C320.072 39.16 319.392 39.3867 318.925 39.84C318.472 40.2933 318.245 41.08 318.245 42.2V48H315.965V36.98H318.245V38.58ZM322.881 42.44C322.881 41.3333 323.107 40.3533 323.561 39.5C324.027 38.6467 324.654 37.9867 325.441 37.52C326.241 37.04 327.127 36.8 328.101 36.8C328.821 36.8 329.527 36.96 330.221 37.28C330.927 37.5867 331.487 38 331.901 38.52V33.2H334.201V48H331.901V46.34C331.527 46.8733 331.007 47.3133 330.341 47.66C329.687 48.0067 328.934 48.18 328.081 48.18C327.121 48.18 326.241 47.94 325.441 47.46C324.654 46.9667 324.027 46.2867 323.561 45.42C323.107 44.54 322.881 43.5467 322.881 42.44ZM331.901 42.48C331.901 41.72 331.741 41.06 331.421 40.5C331.114 39.94 330.707 39.5133 330.201 39.22C329.694 38.9267 329.147 38.78 328.561 38.78C327.974 38.78 327.427 38.9267 326.921 39.22C326.414 39.5 326.001 39.92 325.681 40.48C325.374 41.0267 325.221 41.68 325.221 42.44C325.221 43.2 325.374 43.8667 325.681 44.44C326.001 45.0133 326.414 45.4533 326.921 45.76C327.441 46.0533 327.987 46.2 328.561 46.2C329.147 46.2 329.694 46.0533 330.201 45.76C330.707 45.4667 331.114 45.04 331.421 44.48C331.741 43.9067 331.901 43.24 331.901 42.48ZM341.195 48.18C340.329 48.18 339.549 48.0267 338.855 47.72C338.175 47.4 337.635 46.9733 337.235 46.44C336.835 45.8933 336.622 45.2867 336.595 44.62H338.955C338.995 45.0867 339.215 45.48 339.615 45.8C340.029 46.1067 340.542 46.26 341.155 46.26C341.795 46.26 342.289 46.14 342.635 45.9C342.995 45.6467 343.175 45.3267 343.175 44.94C343.175 44.5267 342.975 44.22 342.575 44.02C342.189 43.82 341.569 43.6 340.715 43.36C339.889 43.1333 339.215 42.9133 338.695 42.7C338.175 42.4867 337.722 42.16 337.335 41.72C336.962 41.28 336.775 40.7 336.775 39.98C336.775 39.3933 336.949 38.86 337.295 38.38C337.642 37.8867 338.135 37.5 338.775 37.22C339.429 36.94 340.175 36.8 341.015 36.8C342.269 36.8 343.275 37.12 344.035 37.76C344.809 38.3867 345.222 39.2467 345.275 40.34H342.995C342.955 39.8467 342.755 39.4533 342.395 39.16C342.035 38.8667 341.549 38.72 340.935 38.72C340.335 38.72 339.875 38.8333 339.555 39.06C339.235 39.2867 339.075 39.5867 339.075 39.96C339.075 40.2533 339.182 40.5 339.395 40.7C339.609 40.9 339.869 41.06 340.175 41.18C340.482 41.2867 340.935 41.4267 341.535 41.6C342.335 41.8133 342.989 42.0333 343.495 42.26C344.015 42.4733 344.462 42.7933 344.835 43.22C345.209 43.6467 345.402 44.2133 345.415 44.92C345.415 45.5467 345.242 46.1067 344.895 46.6C344.549 47.0933 344.055 47.48 343.415 47.76C342.789 48.04 342.049 48.18 341.195 48.18ZM357.514 36.8C358.368 36.8 359.121 36.9733 359.774 37.32C360.441 37.6533 360.961 38.0733 361.334 38.58V36.98H363.634V48.18C363.634 49.1933 363.421 50.0933 362.994 50.88C362.568 51.68 361.948 52.3067 361.134 52.76C360.334 53.2133 359.374 53.44 358.254 53.44C356.761 53.44 355.521 53.0867 354.534 52.38C353.548 51.6867 352.988 50.74 352.854 49.54H355.114C355.288 50.1133 355.654 50.5733 356.214 50.92C356.788 51.28 357.468 51.46 358.254 51.46C359.174 51.46 359.914 51.18 360.474 50.62C361.048 50.06 361.334 49.2467 361.334 48.18V46.34C360.948 46.86 360.421 47.3 359.754 47.66C359.101 48.0067 358.354 48.18 357.514 48.18C356.554 48.18 355.674 47.94 354.874 47.46C354.088 46.9667 353.461 46.2867 352.994 45.42C352.541 44.54 352.314 43.5467 352.314 42.44C352.314 41.3333 352.541 40.3533 352.994 39.5C353.461 38.6467 354.088 37.9867 354.874 37.52C355.674 37.04 356.554 36.8 357.514 36.8ZM361.334 42.48C361.334 41.72 361.174 41.06 360.854 40.5C360.548 39.94 360.141 39.5133 359.634 39.22C359.128 38.9267 358.581 38.78 357.994 38.78C357.408 38.78 356.861 38.9267 356.354 39.22C355.848 39.5 355.434 39.92 355.114 40.48C354.808 41.0267 354.654 41.68 354.654 42.44C354.654 43.2 354.808 43.8667 355.114 44.44C355.434 45.0133 355.848 45.4533 356.354 45.76C356.874 46.0533 357.421 46.2 357.994 46.2C358.581 46.2 359.128 46.0533 359.634 45.76C360.141 45.4667 360.548 45.04 360.854 44.48C361.174 43.9067 361.334 43.24 361.334 42.48ZM368.909 38.58C369.242 38.02 369.682 37.5867 370.229 37.28C370.789 36.96 371.449 36.8 372.209 36.8V39.16H371.629C370.736 39.16 370.056 39.3867 369.589 39.84C369.136 40.2933 368.909 41.08 368.909 42.2V48H366.629V36.98H368.909V38.58ZM379.085 48.18C378.045 48.18 377.105 47.9467 376.265 47.48C375.425 47 374.765 46.3333 374.285 45.48C373.805 44.6133 373.565 43.6133 373.565 42.48C373.565 41.36 373.811 40.3667 374.305 39.5C374.798 38.6333 375.471 37.9667 376.325 37.5C377.178 37.0333 378.131 36.8 379.185 36.8C380.238 36.8 381.191 37.0333 382.045 37.5C382.898 37.9667 383.571 38.6333 384.065 39.5C384.558 40.3667 384.805 41.36 384.805 42.48C384.805 43.6 384.551 44.5933 384.045 45.46C383.538 46.3267 382.845 47 381.965 47.48C381.098 47.9467 380.138 48.18 379.085 48.18ZM379.085 46.2C379.671 46.2 380.218 46.06 380.725 45.78C381.245 45.5 381.665 45.08 381.985 44.52C382.305 43.96 382.465 43.28 382.465 42.48C382.465 41.68 382.311 41.0067 382.005 40.46C381.698 39.9 381.291 39.48 380.785 39.2C380.278 38.92 379.731 38.78 379.145 38.78C378.558 38.78 378.011 38.92 377.505 39.2C377.011 39.48 376.618 39.9 376.325 40.46C376.031 41.0067 375.885 41.68 375.885 42.48C375.885 43.6667 376.185 44.5867 376.785 45.24C377.398 45.88 378.165 46.2 379.085 46.2ZM401.859 36.98L398.439 48H396.039L393.819 39.86L391.599 48H389.199L385.759 36.98H388.079L390.379 45.84L392.719 36.98H395.099L397.339 45.8L399.619 36.98H401.859ZM406.223 38.84V44.94C406.223 45.3533 406.316 45.6533 406.503 45.84C406.703 46.0133 407.036 46.1 407.503 46.1H408.903V48H407.103C406.076 48 405.289 47.76 404.743 47.28C404.196 46.8 403.923 46.02 403.923 44.94V38.84H402.623V36.98H403.923V34.24H406.223V36.98H408.903V38.84H406.223ZM416.704 36.8C417.544 36.8 418.291 36.98 418.944 37.34C419.611 37.7 420.131 38.2333 420.504 38.94C420.891 39.6467 421.084 40.5 421.084 41.5V48H418.824V41.84C418.824 40.8533 418.577 40.1 418.084 39.58C417.591 39.0467 416.917 38.78 416.064 38.78C415.211 38.78 414.531 39.0467 414.024 39.58C413.531 40.1 413.284 40.8533 413.284 41.84V48H411.004V33.2H413.284V38.26C413.671 37.7933 414.157 37.4333 414.744 37.18C415.344 36.9267 415.997 36.8 416.704 36.8ZM424.912 48.14C424.499 48.14 424.152 48 423.872 47.72C423.592 47.44 423.452 47.0933 423.452 46.68C423.452 46.2667 423.592 45.92 423.872 45.64C424.152 45.36 424.499 45.22 424.912 45.22C425.312 45.22 425.652 45.36 425.932 45.64C426.212 45.92 426.352 46.2667 426.352 46.68C426.352 47.0933 426.212 47.44 425.932 47.72C425.652 48 425.312 48.14 424.912 48.14ZM26.78 77.16H31.48V79H24.5V65.1H26.78V77.16ZM43.4867 73.22C43.4867 73.6333 43.4601 74.0067 43.4067 74.34H34.9867C35.0534 75.22 35.3801 75.9267 35.9667 76.46C36.5534 76.9933 37.2734 77.26 38.1267 77.26C39.3534 77.26 40.2201 76.7467 40.7267 75.72H43.1867C42.8534 76.7333 42.2467 77.5667 41.3667 78.22C40.5001 78.86 39.4201 79.18 38.1267 79.18C37.0734 79.18 36.1267 78.9467 35.2867 78.48C34.4601 78 33.8067 77.3333 33.3267 76.48C32.8601 75.6133 32.6267 74.6133 32.6267 73.48C32.6267 72.3467 32.8534 71.3533 33.3067 70.5C33.7734 69.6333 34.4201 68.9667 35.2467 68.5C36.0867 68.0333 37.0467 67.8 38.1267 67.8C39.1667 67.8 40.0934 68.0267 40.9067 68.48C41.7201 68.9333 42.3534 69.5733 42.8067 70.4C43.2601 71.2133 43.4867 72.1533 43.4867 73.22ZM41.1067 72.5C41.0934 71.66 40.7934 70.9867 40.2067 70.48C39.6201 69.9733 38.8934 69.72 38.0267 69.72C37.2401 69.72 36.5667 69.9733 36.0067 70.48C35.4467 70.9733 35.1134 71.6467 35.0067 72.5H41.1067ZM48.3905 69.84V75.94C48.3905 76.3533 48.4838 76.6533 48.6705 76.84C48.8705 77.0133 49.2038 77.1 49.6705 77.1H51.0705V79H49.2705C48.2438 79 47.4571 78.76 46.9105 78.28C46.3638 77.8 46.0905 77.02 46.0905 75.94V69.84H44.7905V67.98H46.0905V65.24H48.3905V67.98H51.0705V69.84H48.3905ZM54.4119 63.06L54.1719 67.16H52.6119L52.3519 63.06H54.4119ZM60.6094 79.18C59.7427 79.18 58.9627 79.0267 58.2694 78.72C57.5894 78.4 57.0494 77.9733 56.6494 77.44C56.2494 76.8933 56.036 76.2867 56.0094 75.62H58.3694C58.4094 76.0867 58.6294 76.48 59.0294 76.8C59.4427 77.1067 59.956 77.26 60.5694 77.26C61.2094 77.26 61.7027 77.14 62.0494 76.9C62.4094 76.6467 62.5894 76.3267 62.5894 75.94C62.5894 75.5267 62.3894 75.22 61.9894 75.02C61.6027 74.82 60.9827 74.6 60.1294 74.36C59.3027 74.1333 58.6294 73.9133 58.1094 73.7C57.5894 73.4867 57.136 73.16 56.7494 72.72C56.376 72.28 56.1894 71.7 56.1894 70.98C56.1894 70.3933 56.3627 69.86 56.7094 69.38C57.056 68.8867 57.5494 68.5 58.1894 68.22C58.8427 67.94 59.5894 67.8 60.4294 67.8C61.6827 67.8 62.6894 68.12 63.4494 68.76C64.2227 69.3867 64.636 70.2467 64.6894 71.34H62.4094C62.3694 70.8467 62.1694 70.4533 61.8094 70.16C61.4494 69.8667 60.9627 69.72 60.3494 69.72C59.7494 69.72 59.2894 69.8333 58.9694 70.06C58.6494 70.2867 58.4894 70.5867 58.4894 70.96C58.4894 71.2533 58.596 71.5 58.8094 71.7C59.0227 71.9 59.2827 72.06 59.5894 72.18C59.896 72.2867 60.3494 72.4267 60.9494 72.6C61.7494 72.8133 62.4027 73.0333 62.9094 73.26C63.4294 73.4733 63.876 73.7933 64.2494 74.22C64.6227 74.6467 64.816 75.2133 64.8294 75.92C64.8294 76.5467 64.656 77.1067 64.3094 77.6C63.9627 78.0933 63.4694 78.48 62.8294 78.76C62.2027 79.04 61.4627 79.18 60.6094 79.18ZM77.1083 69.84H75.0683V79H72.7683V69.84H71.4683V67.98H72.7683V67.2C72.7683 65.9333 73.1016 65.0133 73.7683 64.44C74.4483 63.8533 75.5083 63.56 76.9483 63.56V65.46C76.2549 65.46 75.7683 65.5933 75.4883 65.86C75.2083 66.1133 75.0683 66.56 75.0683 67.2V67.98H77.1083V69.84ZM80.2889 66.52C79.8756 66.52 79.5289 66.38 79.2489 66.1C78.9689 65.82 78.8289 65.4733 78.8289 65.06C78.8289 64.6467 78.9689 64.3 79.2489 64.02C79.5289 63.74 79.8756 63.6 80.2889 63.6C80.6889 63.6 81.0289 63.74 81.3089 64.02C81.5889 64.3 81.7289 64.6467 81.7289 65.06C81.7289 65.4733 81.5889 65.82 81.3089 66.1C81.0289 66.38 80.6889 66.52 80.2889 66.52ZM81.4089 67.98V79H79.1289V67.98H81.4089ZM89.9623 67.8C90.829 67.8 91.6023 67.98 92.2823 68.34C92.9757 68.7 93.5157 69.2333 93.9023 69.94C94.289 70.6467 94.4823 71.5 94.4823 72.5V79H92.2223V72.84C92.2223 71.8533 91.9757 71.1 91.4823 70.58C90.989 70.0467 90.3157 69.78 89.4623 69.78C88.609 69.78 87.929 70.0467 87.4223 70.58C86.929 71.1 86.6823 71.8533 86.6823 72.84V79H84.4023V67.98H86.6823V69.24C87.0557 68.7867 87.529 68.4333 88.1023 68.18C88.689 67.9267 89.309 67.8 89.9623 67.8ZM96.6306 73.44C96.6306 72.3333 96.8573 71.3533 97.3106 70.5C97.7773 69.6467 98.404 68.9867 99.1906 68.52C99.9906 68.04 100.877 67.8 101.851 67.8C102.571 67.8 103.277 67.96 103.971 68.28C104.677 68.5867 105.237 69 105.651 69.52V64.2H107.951V79H105.651V77.34C105.277 77.8733 104.757 78.3133 104.091 78.66C103.437 79.0067 102.684 79.18 101.831 79.18C100.871 79.18 99.9906 78.94 99.1906 78.46C98.404 77.9667 97.7773 77.2867 97.3106 76.42C96.8573 75.54 96.6306 74.5467 96.6306 73.44ZM105.651 73.48C105.651 72.72 105.491 72.06 105.171 71.5C104.864 70.94 104.457 70.5133 103.951 70.22C103.444 69.9267 102.897 69.78 102.311 69.78C101.724 69.78 101.177 69.9267 100.671 70.22C100.164 70.5 99.7506 70.92 99.4306 71.48C99.124 72.0267 98.9706 72.68 98.9706 73.44C98.9706 74.2 99.124 74.8667 99.4306 75.44C99.7506 76.0133 100.164 76.4533 100.671 76.76C101.191 77.0533 101.737 77.2 102.311 77.2C102.897 77.2 103.444 77.0533 103.951 76.76C104.457 76.4667 104.864 76.04 105.171 75.48C105.491 74.9067 105.651 74.24 105.651 73.48ZM126.061 67.98L119.301 84.18H116.941L119.181 78.82L114.841 67.98H117.381L120.481 76.38L123.701 67.98H126.061ZM132.561 79.18C131.521 79.18 130.581 78.9467 129.741 78.48C128.901 78 128.241 77.3333 127.761 76.48C127.281 75.6133 127.041 74.6133 127.041 73.48C127.041 72.36 127.288 71.3667 127.781 70.5C128.275 69.6333 128.948 68.9667 129.801 68.5C130.655 68.0333 131.608 67.8 132.661 67.8C133.715 67.8 134.668 68.0333 135.521 68.5C136.375 68.9667 137.048 69.6333 137.541 70.5C138.035 71.3667 138.281 72.36 138.281 73.48C138.281 74.6 138.028 75.5933 137.521 76.46C137.015 77.3267 136.321 78 135.441 78.48C134.575 78.9467 133.615 79.18 132.561 79.18ZM132.561 77.2C133.148 77.2 133.695 77.06 134.201 76.78C134.721 76.5 135.141 76.08 135.461 75.52C135.781 74.96 135.941 74.28 135.941 73.48C135.941 72.68 135.788 72.0067 135.481 71.46C135.175 70.9 134.768 70.48 134.261 70.2C133.755 69.92 133.208 69.78 132.621 69.78C132.035 69.78 131.488 69.92 130.981 70.2C130.488 70.48 130.095 70.9 129.801 71.46C129.508 72.0067 129.361 72.68 129.361 73.48C129.361 74.6667 129.661 75.5867 130.261 76.24C130.875 76.88 131.641 77.2 132.561 77.2ZM150.515 67.98V79H148.235V77.7C147.875 78.1533 147.402 78.5133 146.815 78.78C146.242 79.0333 145.628 79.16 144.975 79.16C144.108 79.16 143.328 78.98 142.635 78.62C141.955 78.26 141.415 77.7267 141.015 77.02C140.628 76.3133 140.435 75.46 140.435 74.46V67.98H142.695V74.12C142.695 75.1067 142.942 75.8667 143.435 76.4C143.928 76.92 144.602 77.18 145.455 77.18C146.308 77.18 146.982 76.92 147.475 76.4C147.982 75.8667 148.235 75.1067 148.235 74.12V67.98H150.515ZM155.803 69.58C156.137 69.02 156.577 68.5867 157.123 68.28C157.683 67.96 158.343 67.8 159.103 67.8V70.16H158.523C157.63 70.16 156.95 70.3867 156.483 70.84C156.03 71.2933 155.803 72.08 155.803 73.2V79H153.523V67.98H155.803V69.58ZM165.635 73.44C165.635 72.3333 165.861 71.3533 166.315 70.5C166.781 69.6467 167.408 68.9867 168.195 68.52C168.995 68.04 169.875 67.8 170.835 67.8C171.701 67.8 172.455 67.9733 173.095 68.32C173.748 68.6533 174.268 69.0733 174.655 69.58V67.98H176.955V79H174.655V77.36C174.268 77.88 173.741 78.3133 173.075 78.66C172.408 79.0067 171.648 79.18 170.795 79.18C169.848 79.18 168.981 78.94 168.195 78.46C167.408 77.9667 166.781 77.2867 166.315 76.42C165.861 75.54 165.635 74.5467 165.635 73.44ZM174.655 73.48C174.655 72.72 174.495 72.06 174.175 71.5C173.868 70.94 173.461 70.5133 172.955 70.22C172.448 69.9267 171.901 69.78 171.315 69.78C170.728 69.78 170.181 69.9267 169.675 70.22C169.168 70.5 168.755 70.92 168.435 71.48C168.128 72.0267 167.975 72.68 167.975 73.44C167.975 74.2 168.128 74.8667 168.435 75.44C168.755 76.0133 169.168 76.4533 169.675 76.76C170.195 77.0533 170.741 77.2 171.315 77.2C171.901 77.2 172.448 77.0533 172.955 76.76C173.461 76.4667 173.868 76.04 174.175 75.48C174.495 74.9067 174.655 74.24 174.655 73.48ZM185.509 67.8C186.376 67.8 187.149 67.98 187.829 68.34C188.523 68.7 189.063 69.2333 189.449 69.94C189.836 70.6467 190.029 71.5 190.029 72.5V79H187.769V72.84C187.769 71.8533 187.523 71.1 187.029 70.58C186.536 70.0467 185.863 69.78 185.009 69.78C184.156 69.78 183.476 70.0467 182.969 70.58C182.476 71.1 182.229 71.8533 182.229 72.84V79H179.949V67.98H182.229V69.24C182.603 68.7867 183.076 68.4333 183.649 68.18C184.236 67.9267 184.856 67.8 185.509 67.8ZM196.938 79.18C196.071 79.18 195.291 79.0267 194.598 78.72C193.918 78.4 193.378 77.9733 192.978 77.44C192.578 76.8933 192.364 76.2867 192.338 75.62H194.698C194.738 76.0867 194.958 76.48 195.358 76.8C195.771 77.1067 196.284 77.26 196.898 77.26C197.538 77.26 198.031 77.14 198.378 76.9C198.738 76.6467 198.918 76.3267 198.918 75.94C198.918 75.5267 198.718 75.22 198.318 75.02C197.931 74.82 197.311 74.6 196.458 74.36C195.631 74.1333 194.958 73.9133 194.438 73.7C193.918 73.4867 193.464 73.16 193.078 72.72C192.704 72.28 192.518 71.7 192.518 70.98C192.518 70.3933 192.691 69.86 193.038 69.38C193.384 68.8867 193.878 68.5 194.518 68.22C195.171 67.94 195.918 67.8 196.758 67.8C198.011 67.8 199.018 68.12 199.778 68.76C200.551 69.3867 200.964 70.2467 201.018 71.34H198.738C198.698 70.8467 198.498 70.4533 198.138 70.16C197.778 69.8667 197.291 69.72 196.678 69.72C196.078 69.72 195.618 69.8333 195.298 70.06C194.978 70.2867 194.818 70.5867 194.818 70.96C194.818 71.2533 194.924 71.5 195.138 71.7C195.351 71.9 195.611 72.06 195.918 72.18C196.224 72.2867 196.678 72.4267 197.278 72.6C198.078 72.8133 198.731 73.0333 199.238 73.26C199.758 73.4733 200.204 73.7933 200.578 74.22C200.951 74.6467 201.144 75.2133 201.158 75.92C201.158 76.5467 200.984 77.1067 200.638 77.6C200.291 78.0933 199.798 78.48 199.158 78.76C198.531 79.04 197.791 79.18 196.938 79.18ZM218.421 67.98L215.001 79H212.601L210.381 70.86L208.161 79H205.761L202.321 67.98H204.641L206.941 76.84L209.281 67.98H211.661L213.901 76.8L216.181 67.98H218.421ZM230.225 73.22C230.225 73.6333 230.198 74.0067 230.145 74.34H221.725C221.792 75.22 222.118 75.9267 222.705 76.46C223.292 76.9933 224.012 77.26 224.865 77.26C226.092 77.26 226.958 76.7467 227.465 75.72H229.925C229.592 76.7333 228.985 77.5667 228.105 78.22C227.238 78.86 226.158 79.18 224.865 79.18C223.812 79.18 222.865 78.9467 222.025 78.48C221.198 78 220.545 77.3333 220.065 76.48C219.598 75.6133 219.365 74.6133 219.365 73.48C219.365 72.3467 219.592 71.3533 220.045 70.5C220.512 69.6333 221.158 68.9667 221.985 68.5C222.825 68.0333 223.785 67.8 224.865 67.8C225.905 67.8 226.832 68.0267 227.645 68.48C228.458 68.9333 229.092 69.5733 229.545 70.4C229.998 71.2133 230.225 72.1533 230.225 73.22ZM227.845 72.5C227.832 71.66 227.532 70.9867 226.945 70.48C226.358 69.9733 225.632 69.72 224.765 69.72C223.978 69.72 223.305 69.9733 222.745 70.48C222.185 70.9733 221.852 71.6467 221.745 72.5H227.845ZM234.749 69.58C235.082 69.02 235.522 68.5867 236.069 68.28C236.629 67.96 237.289 67.8 238.049 67.8V70.16H237.469C236.575 70.16 235.895 70.3867 235.429 70.84C234.975 71.2933 234.749 72.08 234.749 73.2V79H232.469V67.98H234.749V69.58ZM244.145 79.18C243.278 79.18 242.498 79.0267 241.805 78.72C241.125 78.4 240.585 77.9733 240.185 77.44C239.785 76.8933 239.571 76.2867 239.545 75.62H241.905C241.945 76.0867 242.165 76.48 242.565 76.8C242.978 77.1067 243.491 77.26 244.105 77.26C244.745 77.26 245.238 77.14 245.585 76.9C245.945 76.6467 246.125 76.3267 246.125 75.94C246.125 75.5267 245.925 75.22 245.525 75.02C245.138 74.82 244.518 74.6 243.665 74.36C242.838 74.1333 242.165 73.9133 241.645 73.7C241.125 73.4867 240.671 73.16 240.285 72.72C239.911 72.28 239.725 71.7 239.725 70.98C239.725 70.3933 239.898 69.86 240.245 69.38C240.591 68.8867 241.085 68.5 241.725 68.22C242.378 67.94 243.125 67.8 243.965 67.8C245.218 67.8 246.225 68.12 246.985 68.76C247.758 69.3867 248.171 70.2467 248.225 71.34H245.945C245.905 70.8467 245.705 70.4533 245.345 70.16C244.985 69.8667 244.498 69.72 243.885 69.72C243.285 69.72 242.825 69.8333 242.505 70.06C242.185 70.2867 242.025 70.5867 242.025 70.96C242.025 71.2533 242.131 71.5 242.345 71.7C242.558 71.9 242.818 72.06 243.125 72.18C243.431 72.2867 243.885 72.4267 244.485 72.6C245.285 72.8133 245.938 73.0333 246.445 73.26C246.965 73.4733 247.411 73.7933 247.785 74.22C248.158 74.6467 248.351 75.2133 248.365 75.92C248.365 76.5467 248.191 77.1067 247.845 77.6C247.498 78.0933 247.005 78.48 246.365 78.76C245.738 79.04 244.998 79.18 244.145 79.18ZM258.683 69.84V75.94C258.683 76.3533 258.777 76.6533 258.963 76.84C259.163 77.0133 259.497 77.1 259.963 77.1H261.363V79H259.563C258.537 79 257.75 78.76 257.203 78.28C256.657 77.8 256.383 77.02 256.383 75.94V69.84H255.083V67.98H256.383V65.24H258.683V67.98H261.363V69.84H258.683ZM268.245 79.18C267.205 79.18 266.265 78.9467 265.425 78.48C264.585 78 263.925 77.3333 263.445 76.48C262.965 75.6133 262.725 74.6133 262.725 73.48C262.725 72.36 262.972 71.3667 263.465 70.5C263.958 69.6333 264.632 68.9667 265.485 68.5C266.338 68.0333 267.292 67.8 268.345 67.8C269.398 67.8 270.352 68.0333 271.205 68.5C272.058 68.9667 272.732 69.6333 273.225 70.5C273.718 71.3667 273.965 72.36 273.965 73.48C273.965 74.6 273.712 75.5933 273.205 76.46C272.698 77.3267 272.005 78 271.125 78.48C270.258 78.9467 269.298 79.18 268.245 79.18ZM268.245 77.2C268.832 77.2 269.378 77.06 269.885 76.78C270.405 76.5 270.825 76.08 271.145 75.52C271.465 74.96 271.625 74.28 271.625 73.48C271.625 72.68 271.472 72.0067 271.165 71.46C270.858 70.9 270.452 70.48 269.945 70.2C269.438 69.92 268.892 69.78 268.305 69.78C267.718 69.78 267.172 69.92 266.665 70.2C266.172 70.48 265.778 70.9 265.485 71.46C265.192 72.0067 265.045 72.68 265.045 73.48C265.045 74.6667 265.345 75.5867 265.945 76.24C266.558 76.88 267.325 77.2 268.245 77.2ZM280.659 67.8C281.512 67.8 282.265 67.9733 282.919 68.32C283.585 68.6533 284.105 69.0733 284.479 69.58V67.98H286.779V79.18C286.779 80.1933 286.565 81.0933 286.139 81.88C285.712 82.68 285.092 83.3067 284.279 83.76C283.479 84.2133 282.519 84.44 281.399 84.44C279.905 84.44 278.665 84.0867 277.679 83.38C276.692 82.6867 276.132 81.74 275.999 80.54H278.259C278.432 81.1133 278.799 81.5733 279.359 81.92C279.932 82.28 280.612 82.46 281.399 82.46C282.319 82.46 283.059 82.18 283.619 81.62C284.192 81.06 284.479 80.2467 284.479 79.18V77.34C284.092 77.86 283.565 78.3 282.899 78.66C282.245 79.0067 281.499 79.18 280.659 79.18C279.699 79.18 278.819 78.94 278.019 78.46C277.232 77.9667 276.605 77.2867 276.139 76.42C275.685 75.54 275.459 74.5467 275.459 73.44C275.459 72.3333 275.685 71.3533 276.139 70.5C276.605 69.6467 277.232 68.9867 278.019 68.52C278.819 68.04 279.699 67.8 280.659 67.8ZM284.479 73.48C284.479 72.72 284.319 72.06 283.999 71.5C283.692 70.94 283.285 70.5133 282.779 70.22C282.272 69.9267 281.725 69.78 281.139 69.78C280.552 69.78 280.005 69.9267 279.499 70.22C278.992 70.5 278.579 70.92 278.259 71.48C277.952 72.0267 277.799 72.68 277.799 73.44C277.799 74.2 277.952 74.8667 278.259 75.44C278.579 76.0133 278.992 76.4533 279.499 76.76C280.019 77.0533 280.565 77.2 281.139 77.2C281.725 77.2 282.272 77.0533 282.779 76.76C283.285 76.4667 283.692 76.04 283.999 75.48C284.319 74.9067 284.479 74.24 284.479 73.48ZM299.873 73.22C299.873 73.6333 299.847 74.0067 299.793 74.34H291.373C291.44 75.22 291.767 75.9267 292.353 76.46C292.94 76.9933 293.66 77.26 294.513 77.26C295.74 77.26 296.607 76.7467 297.113 75.72H299.573C299.24 76.7333 298.633 77.5667 297.753 78.22C296.887 78.86 295.807 79.18 294.513 79.18C293.46 79.18 292.513 78.9467 291.673 78.48C290.847 78 290.193 77.3333 289.713 76.48C289.247 75.6133 289.013 74.6133 289.013 73.48C289.013 72.3467 289.24 71.3533 289.693 70.5C290.16 69.6333 290.807 68.9667 291.633 68.5C292.473 68.0333 293.433 67.8 294.513 67.8C295.553 67.8 296.48 68.0267 297.293 68.48C298.107 68.9333 298.74 69.5733 299.193 70.4C299.647 71.2133 299.873 72.1533 299.873 73.22ZM297.493 72.5C297.48 71.66 297.18 70.9867 296.593 70.48C296.007 69.9733 295.28 69.72 294.413 69.72C293.627 69.72 292.953 69.9733 292.393 70.48C291.833 70.9733 291.5 71.6467 291.393 72.5H297.493ZM304.777 69.84V75.94C304.777 76.3533 304.871 76.6533 305.057 76.84C305.257 77.0133 305.591 77.1 306.057 77.1H307.457V79H305.657C304.631 79 303.844 78.76 303.297 78.28C302.751 77.8 302.477 77.02 302.477 75.94V69.84H301.177V67.98H302.477V65.24H304.777V67.98H307.457V69.84H304.777ZM315.259 67.8C316.099 67.8 316.845 67.98 317.499 68.34C318.165 68.7 318.685 69.2333 319.059 69.94C319.445 70.6467 319.639 71.5 319.639 72.5V79H317.379V72.84C317.379 71.8533 317.132 71.1 316.639 70.58C316.145 70.0467 315.472 69.78 314.619 69.78C313.765 69.78 313.085 70.0467 312.579 70.58C312.085 71.1 311.839 71.8533 311.839 72.84V79H309.559V64.2H311.839V69.26C312.225 68.7933 312.712 68.4333 313.299 68.18C313.899 67.9267 314.552 67.8 315.259 67.8ZM332.647 73.22C332.647 73.6333 332.62 74.0067 332.567 74.34H324.147C324.214 75.22 324.54 75.9267 325.127 76.46C325.714 76.9933 326.434 77.26 327.287 77.26C328.514 77.26 329.38 76.7467 329.887 75.72H332.347C332.014 76.7333 331.407 77.5667 330.527 78.22C329.66 78.86 328.58 79.18 327.287 79.18C326.234 79.18 325.287 78.9467 324.447 78.48C323.62 78 322.967 77.3333 322.487 76.48C322.02 75.6133 321.787 74.6133 321.787 73.48C321.787 72.3467 322.014 71.3533 322.467 70.5C322.934 69.6333 323.58 68.9667 324.407 68.5C325.247 68.0333 326.207 67.8 327.287 67.8C328.327 67.8 329.254 68.0267 330.067 68.48C330.88 68.9333 331.514 69.5733 331.967 70.4C332.42 71.2133 332.647 72.1533 332.647 73.22ZM330.267 72.5C330.254 71.66 329.954 70.9867 329.367 70.48C328.78 69.9733 328.054 69.72 327.187 69.72C326.4 69.72 325.727 69.9733 325.167 70.48C324.607 70.9733 324.274 71.6467 324.167 72.5H330.267ZM337.171 69.58C337.504 69.02 337.944 68.5867 338.491 68.28C339.051 67.96 339.711 67.8 340.471 67.8V70.16H339.891C338.997 70.16 338.317 70.3867 337.851 70.84C337.397 71.2933 337.171 72.08 337.171 73.2V79H334.891V67.98H337.171V69.58ZM343.486 79.14C343.073 79.14 342.726 79 342.446 78.72C342.166 78.44 342.026 78.0933 342.026 77.68C342.026 77.2667 342.166 76.92 342.446 76.64C342.726 76.36 343.073 76.22 343.486 76.22C343.886 76.22 344.226 76.36 344.506 76.64C344.786 76.92 344.926 77.2667 344.926 77.68C344.926 78.0933 344.786 78.44 344.506 78.72C344.226 79 343.886 79.14 343.486 79.14ZM348.311 79.14C347.897 79.14 347.551 79 347.271 78.72C346.991 78.44 346.851 78.0933 346.851 77.68C346.851 77.2667 346.991 76.92 347.271 76.64C347.551 76.36 347.897 76.22 348.311 76.22C348.711 76.22 349.051 76.36 349.331 76.64C349.611 76.92 349.751 77.2667 349.751 77.68C349.751 78.0933 349.611 78.44 349.331 78.72C349.051 79 348.711 79.14 348.311 79.14ZM353.135 79.14C352.722 79.14 352.375 79 352.095 78.72C351.815 78.44 351.675 78.0933 351.675 77.68C351.675 77.2667 351.815 76.92 352.095 76.64C352.375 76.36 352.722 76.22 353.135 76.22C353.535 76.22 353.875 76.36 354.155 76.64C354.435 76.92 354.575 77.2667 354.575 77.68C354.575 78.0933 354.435 78.44 354.155 78.72C353.875 79 353.535 79.14 353.135 79.14Z" fill="white"/>
</svg>
